<svg height="96" viewBox="0 0 66 96" width="66" xmlns="http://www.w3.org/2000/svg"><path d="m55.5930085 0c.473573 0 .473573.23678647.2367865.47357294s-.9471459.47357294-1.8942918.94714588c-2.3678647 1.42071881-5.4460888 3.31501057-10.6553911 7.57716702-11.128964 9.23467226-26.5200845 25.33615226-28.8879492 47.35729386-2.3678647 21.7843552 4.0253699 29.5983087 10.4186046 31.255814 6.3932347 1.4207188 19.8900634-4.2621565 26.5200846-17.0486258 7.3403805-13.9704017 4.02537-31.7293869 2.8414376-36.7019028-.9471459-4.2621564-1.8942917-6.6300211-2.1310782-10.8921776-.2367865-6.1564482 3.3150106-14.20718813 5.4460888-17.04862577 1.1839323-1.65750528 3.3150105-2.13107822 4.2621564.94714588 4.2621565 13.26004229 7.3403806 41.91120509-5.9196617 63.69556029-13.0232558 21.5475687-29.3615222 26.2832981-39.7801269 23.9154334-8.99788579-2.1310783-17.28541222-11.3657506-15.15433399-29.8350952 2.13107822-18.4693446 10.89217759-30.782241 17.04862579-37.8858351 16.8118393-19.65327692 35.2811839-26.28329806 37.6490486-26.756871zm-10.4186046 60.1437632c.4735729-.7103594 1.1839323-.7103594 1.4207188 0 0 .473573 0 1.1839324-.2367865 1.8942918-.4735729 1.8942917-1.8942917 5.4460888-4.02537 9.4714587-2.8414376 4.9725159-5.9196617 8.7610994-8.2875264 10.4186047-2.6046511 2.1310782-7.1035941 4.2621564-10.4186046 1.4207188-3.5517971-3.0782241-1.8942918-8.5243129.9471458-11.8393235 1.1839324-1.4207188 4.2621565-4.4989429 10.1818182-5.9196617 5.6828753-1.4207188 8.2875264-3.0782241 9.7082453-4.7357294z" fill="#144a89"/></svg>